<?xml version="1.0" encoding="utf-8"?>
<!-- Generator: Adobe Illustrator 26.5.0, SVG Export Plug-In . SVG Version: 6.00 Build 0)  -->
<svg version="1.1" id="Layer_1" xmlns="http://www.w3.org/2000/svg" xmlns:xlink="http://www.w3.org/1999/xlink" x="0px" y="0px"
	 viewBox="0 0 512 512" style="enable-background:new 0 0 512 512;" xml:space="preserve">
<style type="text/css">
	.st0{fill:#B81D24;}
</style>
<g id="layer1" transform="translate(-384.28572,-428.81172)">
	<g id="g3235" transform="matrix(2.5445375,0,0,2.5445375,1157.1714,-1457.8678)">
		<path id="path3015" class="st0" d="M-132.04,865.86c2.77,0.28,5.53,0.55,8.44,0.83l6.22-15.21l5.81,16.6
			c3.04,0.41,5.95,0.83,8.99,1.24l-10.23-29.18l10.23-25.45h-8.71l-0.14,0.14l-5.53,13.69l-4.84-13.83h-8.57l8.85,25.17
			L-132.04,865.86z"/>
		<path id="path3019" class="st0" d="M-138.54,865.31v-50.48h-8.57v49.79C-144.21,864.76-141.31,865.03-138.54,865.31"/>
		<path id="path3023" class="st0" d="M-202.98,862.54c2.35,0,4.7,0,6.91,0v-18.53h10.37v-7.88h-10.37v-13.41h11.89v-7.88h-20.47
			v47.71C-204.09,862.54-203.54,862.54-202.98,862.54"/>
		<path id="path3035" class="st0" d="M-229.67,862.96c2.9-0.14,5.67-0.14,8.57-0.28v-39.97h8.02v-7.88h-24.62v7.88h8.02V862.96
			L-229.67,862.96z"/>
		<path id="path3039" class="st0" d="M-295.36,868.35V838.2l10.23,28.9c3.18-0.41,6.22-0.69,9.4-0.97v-51.31h-8.3v31.12
			l-11.06-31.12h-0.41h-8.3v54.49l0,0C-300.9,869.04-298.13,868.63-295.36,868.35"/>
		<path id="path3051" class="st0" d="M-245.99,822.72v-7.88h-20.47v42.46v7.88l0,0c6.78-0.55,13.69-1.11,20.47-1.52l0,0v-2.21v-5.67
			c-4.01,0.28-7.88,0.55-11.89,0.83v-12.58h10.37v-7.88h-10.37v-13.28L-245.99,822.72L-245.99,822.72z"/>
		<path id="path3055" class="st0" d="M-167.17,855.49v-40.66h-8.57v40.24v7.88l0,0c6.91,0.28,13.69,0.55,20.47,1.11l0,0v-2.49v-5.39
			C-159.28,855.91-163.16,855.63-167.17,855.49"/>
	</g>
</g>
</svg>
